<svg width="70" height="24" viewBox="0 0 70 24" fill="none" xmlns="http://www.w3.org/2000/svg">
<g clip-path="url(#clip0_1070_9219)">
<path d="M25.7139 1.04416V22.6144C25.7139 22.7696 25.5483 22.873 25.2998 22.873C25.0514 22.873 24.8858 22.7696 24.8858 22.6144V1.07002C24.8858 0.914843 25.0514 0.811388 25.2998 0.811388C25.5483 0.811388 25.7139 0.914843 25.7139 1.04416Z" fill="#000001"/>
<path fill-rule="evenodd" clip-rule="evenodd" d="M6.7643 5.30033L2.52396 5.30033L2.52396 9.54067L6.7643 9.54067L6.7643 5.30033ZM0.933958 3.18066C0.641805 3.18066 0.404297 3.41817 0.404297 3.71033L0.404297 11.1307C0.404297 11.4238 0.641802 11.6603 0.933958 11.6603L8.3543 11.6603C8.64745 11.6603 8.88397 11.4238 8.88397 11.1307L8.88397 3.71033C8.88397 3.41817 8.64745 3.18066 8.3543 3.18066L0.933958 3.18066Z" fill="#000001"/>
<path fill-rule="evenodd" clip-rule="evenodd" d="M6.7643 15.9009L2.52396 15.9009L2.52396 20.1413H6.7643L6.7643 15.9009ZM0.933958 13.7812C0.641805 13.7812 0.404297 14.0178 0.404297 14.3109L0.404297 21.7313C0.404297 22.0234 0.641802 22.2609 0.933958 22.2609H8.3543C8.64745 22.2609 8.88397 22.0234 8.88397 21.7313L8.88397 14.3109C8.88397 14.0178 8.64745 13.7812 8.3543 13.7812L0.933958 13.7812Z" fill="#000001"/>
<path fill-rule="evenodd" clip-rule="evenodd" d="M17.3649 5.30033L13.1245 5.30033L13.1245 9.54067L17.3649 9.54067V5.30033ZM11.5345 3.18066C11.2414 3.18066 11.0049 3.41817 11.0049 3.71033L11.0049 11.1307C11.0049 11.4238 11.2414 11.6603 11.5345 11.6603L18.9549 11.6603C19.247 11.6603 19.4846 11.4238 19.4846 11.1307V3.71033C19.4846 3.41817 19.247 3.18066 18.9549 3.18066L11.5345 3.18066Z" fill="#000001"/>
<path d="M16.3047 16.2184C16.3047 16.0425 16.4468 15.9004 16.6227 15.9004H19.1667C19.3426 15.9004 19.4847 16.0425 19.4847 16.2184V19.8227C19.4847 19.9976 19.3426 20.1407 19.1667 20.1407H16.6227C16.4468 20.1407 16.3047 19.9976 16.3047 19.8227V16.2184Z" fill="#000001"/>
<path d="M11.0049 19.6107C11.0049 19.3186 11.2414 19.0811 11.5345 19.0811H13.6542C13.9474 19.0811 14.1849 19.3186 14.1849 19.6107V21.7314C14.1849 22.0235 13.9474 22.261 13.6542 22.261H11.5345C11.2414 22.261 11.0049 22.0235 11.0049 21.7314V19.6107Z" fill="#000001"/>
<path d="M13.124 14.3109C13.124 14.0178 13.3615 13.7812 13.6537 13.7812L18.9544 13.7812C19.2465 13.7812 19.484 14.0178 19.484 14.3109V16.4306C19.484 16.7237 19.2465 16.9612 18.9544 16.9612H13.6537C13.3615 16.9612 13.124 16.7237 13.124 16.4306V14.3109Z" fill="#000001"/>
<path d="M14.1846 6.67835C14.1846 6.50246 14.3267 6.36035 14.5026 6.36035H15.9862C16.1621 6.36035 16.3042 6.50246 16.3042 6.67835V8.16201C16.3042 8.33791 16.1621 8.48001 15.9862 8.48001H14.5026C14.3267 8.48001 14.1846 8.33791 14.1846 8.16201V6.67835Z" fill="#000001"/>
<path d="M3.58398 6.67835C3.58398 6.50246 3.72609 6.36035 3.90198 6.36035H5.38565C5.56154 6.36035 5.70365 6.50246 5.70365 6.67835V8.16201C5.70365 8.33791 5.56154 8.48001 5.38565 8.48001H3.90198C3.72609 8.48001 3.58398 8.33791 3.58398 8.16201L3.58398 6.67835Z" fill="#000001"/>
<path d="M3.58398 17.2789C3.58398 17.103 3.72609 16.9609 3.90198 16.9609H5.38565C5.56154 16.9609 5.70365 17.103 5.70365 17.2789V18.7626C5.70365 18.9385 5.56154 19.0806 5.38565 19.0806H3.90198C3.72609 19.0806 3.58398 18.9385 3.58398 18.7626L3.58398 17.2789Z" fill="#000001"/>
<path d="M32.9628 12.3117C32.9628 10.2453 34.0357 9.17235 35.72 9.17235C37.4043 9.17235 38.4772 10.2453 38.4772 12.3117C38.4772 14.3811 37.4043 15.451 35.72 15.451C34.0357 15.451 32.9628 14.3811 32.9628 12.3117ZM41.9986 12.3269C41.9986 8.86667 39.7794 6.64746 35.72 6.64746C31.6606 6.64746 29.4414 8.86667 29.4414 12.3117C29.4414 15.6038 31.6606 17.8261 35.72 17.8261H42.2279C42.5366 17.8261 42.7659 17.5968 42.7659 17.2911V15.7597C42.7659 15.451 42.5366 15.2217 42.2279 15.2217H40.9287V15.0689C40.9287 15.0689 41.9986 13.9959 41.9986 12.3269Z" fill="#000001"/>
<path d="M53.1216 16.9438C53.2439 17.2525 53.5037 17.4818 53.8124 17.4818H56.4137C56.7194 17.4818 56.9364 17.2525 56.7958 16.9438L52.5102 7.28137C52.3727 6.97569 52.1251 6.76172 51.8194 6.76172H48.6801C48.3744 6.76172 48.1299 6.99098 47.9923 7.29665L43.7037 16.9438C43.5661 17.2525 43.7801 17.4818 44.0858 17.4818H46.5373C46.843 17.4818 47.1028 17.2525 47.2251 16.9438L47.7631 15.5683H52.5867L53.1216 16.9438ZM50.1351 9.97744H50.288L51.5137 13.0403H48.833L50.1351 9.97744Z" fill="#000001"/>
<path d="M67.027 12.7346C67.027 12.7346 69.0965 12.2731 69.0965 10.2831C69.0965 8.36958 67.4855 6.76172 64.117 6.76172H58.5292C58.2205 6.76172 57.9912 6.99098 57.9912 7.29665V16.9438C57.9912 17.2525 58.2205 17.4818 58.5292 17.4818H60.8248C61.1305 17.4818 61.3598 17.2525 61.3598 16.9438V13.8045H63.3528C64.1934 13.8045 64.4868 14.1132 64.7314 14.5718L66.0336 16.9438C66.2017 17.2525 66.4157 17.4818 67.027 17.4818H69.4021C69.7842 17.4818 69.9065 17.1761 69.7842 16.9438L68.482 14.5718C67.7178 13.1932 67.027 12.8875 67.027 12.8875V12.7346ZM61.3598 11.356V9.21019H64.117C65.1135 9.21019 65.572 9.67176 65.572 10.2831C65.572 10.8975 65.1135 11.356 64.117 11.356H61.3598Z" fill="#000001"/>
</g>
<defs>
<clipPath id="clip0_1070_9219">
<rect width="70" height="22.6201" fill="white" transform="translate(0 0.69043)"/>
</clipPath>
</defs>
</svg>
