<svg width="14" height="14" viewBox="0 0 14 14" fill="none" xmlns="http://www.w3.org/2000/svg">
<g clip-path="url(#clip0_1038_4266)">
<path d="M11.3753 7.875C11.3764 8.05338 11.3222 8.22772 11.2201 8.37404C11.1181 8.52035 10.9732 8.63144 10.8054 8.69203L7.98464 9.73438L6.94558 12.5573C6.88405 12.7245 6.77272 12.8688 6.62662 12.9707C6.48052 13.0726 6.30668 13.1272 6.12855 13.1272C5.95042 13.1272 5.77658 13.0726 5.63048 12.9707C5.48438 12.8688 5.37305 12.7245 5.31152 12.5573L4.2659 9.73438L1.44293 8.69531C1.27576 8.63378 1.1315 8.52245 1.02959 8.37635C0.927685 8.23025 0.873047 8.05641 0.873047 7.87828C0.873047 7.70015 0.927685 7.52631 1.02959 7.38021C1.1315 7.23411 1.27576 7.12278 1.44293 7.06125L4.2659 6.01562L5.30496 3.19266C5.36649 3.02549 5.47782 2.88123 5.62392 2.77932C5.77002 2.67742 5.94386 2.62278 6.12199 2.62278C6.30012 2.62278 6.47396 2.67742 6.62006 2.77932C6.76616 2.88123 6.87749 3.02549 6.93902 3.19266L7.98464 6.01562L10.8076 7.05469C10.9755 7.11582 11.1203 7.22757 11.222 7.37451C11.3237 7.52145 11.3772 7.69632 11.3753 7.875ZM8.31277 2.625H9.18777V3.5C9.18777 3.61603 9.23386 3.72731 9.31591 3.80936C9.39796 3.89141 9.50924 3.9375 9.62527 3.9375C9.7413 3.9375 9.85258 3.89141 9.93463 3.80936C10.0167 3.72731 10.0628 3.61603 10.0628 3.5V2.625H10.9378C11.0538 2.625 11.1651 2.57891 11.2471 2.49686C11.3292 2.41481 11.3753 2.30353 11.3753 2.1875C11.3753 2.07147 11.3292 1.96019 11.2471 1.87814C11.1651 1.79609 11.0538 1.75 10.9378 1.75H10.0628V0.875C10.0628 0.758968 10.0167 0.647688 9.93463 0.565641C9.85258 0.483594 9.7413 0.4375 9.62527 0.4375C9.50924 0.4375 9.39796 0.483594 9.31591 0.565641C9.23386 0.647688 9.18777 0.758968 9.18777 0.875V1.75H8.31277C8.19674 1.75 8.08546 1.79609 8.00341 1.87814C7.92136 1.96019 7.87527 2.07147 7.87527 2.1875C7.87527 2.30353 7.92136 2.41481 8.00341 2.49686C8.08546 2.57891 8.19674 2.625 8.31277 2.625ZM13.1253 4.375H12.6878V3.9375C12.6878 3.82147 12.6417 3.71019 12.5596 3.62814C12.4776 3.54609 12.3663 3.5 12.2503 3.5C12.1342 3.5 12.023 3.54609 11.9409 3.62814C11.8589 3.71019 11.8128 3.82147 11.8128 3.9375V4.375H11.3753C11.2592 4.375 11.148 4.42109 11.0659 4.50314C10.9839 4.58519 10.9378 4.69647 10.9378 4.8125C10.9378 4.92853 10.9839 5.03981 11.0659 5.12186C11.148 5.20391 11.2592 5.25 11.3753 5.25H11.8128V5.6875C11.8128 5.80353 11.8589 5.91481 11.9409 5.99686C12.023 6.07891 12.1342 6.125 12.2503 6.125C12.3663 6.125 12.4776 6.07891 12.5596 5.99686C12.6417 5.91481 12.6878 5.80353 12.6878 5.6875V5.25H13.1253C13.2413 5.25 13.3526 5.20391 13.4346 5.12186C13.5167 5.03981 13.5628 4.92853 13.5628 4.8125C13.5628 4.69647 13.5167 4.58519 13.4346 4.50314C13.3526 4.42109 13.2413 4.375 13.1253 4.375Z" fill="white"/>
</g>
<defs>
<clipPath id="clip0_1038_4266">
<rect width="14" height="14" fill="white"/>
</clipPath>
</defs>
</svg>
