<svg width="49" height="18" viewBox="0 0 49 18" fill="none" xmlns="http://www.w3.org/2000/svg">
<path d="M35.0616 17.6404V0.360352H42.3576C42.5256 0.360352 42.7496 0.368352 43.0296 0.384352C43.3176 0.392352 43.5736 0.416352 43.7976 0.456352C44.8296 0.616352 45.6736 0.956351 46.3296 1.47635C46.9936 1.99635 47.4816 2.65235 47.7936 3.44435C48.1056 4.22835 48.2616 5.10435 48.2616 6.07235C48.2616 7.52035 47.9016 8.76035 47.1816 9.79235C46.4616 10.8164 45.3336 11.4484 43.7976 11.6884L42.3576 11.7844H38.3256V17.6404H35.0616ZM44.8056 17.6404L41.3976 10.6084L44.7576 9.96035L48.5016 17.6404H44.8056ZM38.3256 8.73635H42.2136C42.3816 8.73635 42.5656 8.72835 42.7656 8.71235C42.9656 8.69635 43.1496 8.66435 43.3176 8.61635C43.7576 8.49635 44.0976 8.29635 44.3376 8.01635C44.5776 7.72835 44.7416 7.41235 44.8296 7.06835C44.9256 6.71635 44.9736 6.38435 44.9736 6.07235C44.9736 5.76035 44.9256 5.43235 44.8296 5.08835C44.7416 4.73635 44.5776 4.42035 44.3376 4.14035C44.0976 3.85235 43.7576 3.64835 43.3176 3.52835C43.1496 3.48035 42.9656 3.44835 42.7656 3.43235C42.5656 3.41635 42.3816 3.40835 42.2136 3.40835H38.3256V8.73635Z" fill="#222222"/>
<path d="M17.4788 17.6404L22.7588 0.360352H27.6308L32.9108 17.6404H29.5508L24.8468 2.40035H25.4708L20.8388 17.6404H17.4788ZM20.6468 14.0404V10.9924H29.7668V14.0404H20.6468Z" fill="#222222"/>
<path d="M14.472 18L9.432 12.984L11.448 10.968L16.464 15.984L14.472 18ZM8.376 18C6.648 18 5.156 17.624 3.9 16.872C2.652 16.12 1.688 15.068 1.008 13.716C0.336 12.364 0 10.792 0 9C0 7.208 0.336 5.636 1.008 4.284C1.688 2.932 2.652 1.88 3.9 1.128C5.156 0.375999 6.648 0 8.376 0C10.104 0 11.592 0.375999 12.84 1.128C14.096 1.88 15.06 2.932 15.732 4.284C16.412 5.636 16.752 7.208 16.752 9C16.752 10.792 16.412 12.364 15.732 13.716C15.06 15.068 14.096 16.12 12.84 16.872C11.592 17.624 10.104 18 8.376 18ZM8.376 14.928C9.472 14.944 10.384 14.708 11.112 14.22C11.84 13.732 12.384 13.04 12.744 12.144C13.112 11.248 13.296 10.2 13.296 9C13.296 7.8 13.112 6.76 12.744 5.88C12.384 5 11.84 4.316 11.112 3.828C10.384 3.34 9.472 3.088 8.376 3.072C7.28 3.056 6.368 3.292 5.64 3.78C4.912 4.268 4.364 4.96 3.996 5.856C3.636 6.752 3.456 7.8 3.456 9C3.456 10.2 3.636 11.24 3.996 12.12C4.364 13 4.912 13.684 5.64 14.172C6.368 14.66 7.28 14.912 8.376 14.928Z" fill="#222222"/>
</svg>
