<svg width="20" height="20" viewBox="0 0 20 20" fill="none" xmlns="http://www.w3.org/2000/svg">
<path fill-rule="evenodd" clip-rule="evenodd" d="M6.7643 2.30033L2.52396 2.30033L2.52396 6.54067L6.7643 6.54067L6.7643 2.30033ZM0.933958 0.180664C0.641805 0.180664 0.404297 0.41817 0.404297 0.710325L0.404297 8.13067C0.404297 8.42382 0.641802 8.66033 0.933958 8.66033L8.3543 8.66033C8.64745 8.66033 8.88397 8.42382 8.88397 8.13067L8.88397 0.710325C8.88397 0.418172 8.64745 0.180664 8.3543 0.180664L0.933958 0.180664Z" fill="#000001"/>
<path fill-rule="evenodd" clip-rule="evenodd" d="M6.7643 12.9009L2.52396 12.9009L2.52396 17.1413H6.7643L6.7643 12.9009ZM0.933958 10.7812C0.641805 10.7812 0.404297 11.0178 0.404297 11.3109L0.404297 18.7313C0.404297 19.0234 0.641802 19.2609 0.933958 19.2609H8.3543C8.64745 19.2609 8.88397 19.0234 8.88397 18.7313L8.88397 11.3109C8.88397 11.0178 8.64745 10.7812 8.3543 10.7812L0.933958 10.7812Z" fill="#000001"/>
<path fill-rule="evenodd" clip-rule="evenodd" d="M17.3649 2.30033L13.1245 2.30033L13.1245 6.54067L17.3649 6.54067V2.30033ZM11.5345 0.180664C11.2414 0.180664 11.0049 0.41817 11.0049 0.710325L11.0049 8.13067C11.0049 8.42382 11.2414 8.66033 11.5345 8.66033L18.9549 8.66033C19.247 8.66033 19.4846 8.42382 19.4846 8.13067V0.710325C19.4846 0.418172 19.247 0.180664 18.9549 0.180664L11.5345 0.180664Z" fill="#000001"/>
<path d="M16.3047 13.2184C16.3047 13.0425 16.4468 12.9004 16.6227 12.9004H19.1667C19.3426 12.9004 19.4847 13.0425 19.4847 13.2184V16.8227C19.4847 16.9976 19.3426 17.1407 19.1667 17.1407H16.6227C16.4468 17.1407 16.3047 16.9976 16.3047 16.8227V13.2184Z" fill="#000001"/>
<path d="M11.0049 16.6107C11.0049 16.3186 11.2414 16.0811 11.5345 16.0811H13.6542C13.9474 16.0811 14.1849 16.3186 14.1849 16.6107V18.7314C14.1849 19.0235 13.9474 19.261 13.6542 19.261H11.5345C11.2414 19.261 11.0049 19.0235 11.0049 18.7314V16.6107Z" fill="#000001"/>
<path d="M13.124 11.3109C13.124 11.0178 13.3615 10.7812 13.6537 10.7812L18.9544 10.7812C19.2465 10.7812 19.484 11.0178 19.484 11.3109V13.4306C19.484 13.7237 19.2465 13.9612 18.9544 13.9612L13.6537 13.9612C13.3615 13.9612 13.124 13.7237 13.124 13.4306V11.3109Z" fill="#000001"/>
<path d="M14.1846 3.67835C14.1846 3.50246 14.3267 3.36035 14.5026 3.36035L15.9862 3.36035C16.1621 3.36035 16.3042 3.50246 16.3042 3.67835V5.16201C16.3042 5.33791 16.1621 5.48001 15.9862 5.48001H14.5026C14.3267 5.48001 14.1846 5.33791 14.1846 5.16201V3.67835Z" fill="#000001"/>
<path d="M3.58398 3.67835C3.58398 3.50246 3.72609 3.36035 3.90198 3.36035L5.38565 3.36035C5.56154 3.36035 5.70365 3.50246 5.70365 3.67835V5.16201C5.70365 5.33791 5.56154 5.48001 5.38565 5.48001H3.90198C3.72609 5.48001 3.58398 5.33791 3.58398 5.16201L3.58398 3.67835Z" fill="#000001"/>
<path d="M3.58398 14.2789C3.58398 14.103 3.72609 13.9609 3.90198 13.9609H5.38565C5.56154 13.9609 5.70365 14.103 5.70365 14.2789V15.7626C5.70365 15.9385 5.56154 16.0806 5.38565 16.0806H3.90198C3.72609 16.0806 3.58398 15.9385 3.58398 15.7626L3.58398 14.2789Z" fill="#000001"/>
</svg>
